<svg width="1200" height="1200" xmlns="http://www.w3.org/2000/svg" xmlns:xlink="http://www.w3.org/1999/xlink" version="1.1"><g transform="scale(12.060338086717554) translate(-0.9231893751356335, -0.5318915579054089)">                        <g fill="#e53935"><path xmlns="http://www.w3.org/2000/svg" d="M75.6397934,54.4356232c6.3454514-4.8081436,10.4945602-11.8113937,10.8607254-19.6507568  C87.2325211,19.210577,72.9553452,6.04036,54.651001,5.5177355C37.2009354,5.0996361,22.4353161,16.8065033,21.5810394,31.753643  c-0.1219463,2.1950226,0,4.3900452,0.4881115,6.4805412c0.2442207,0.9407234,0,1.9859734-0.6100578,2.8221741  c-1.5862789,2.5085945-5.0033875,7.839447-6.4673939,12.2294922c-0.976223,3.0312195,2.1963367,3.135746,9.0298977,3.3447952  l0.7323303,9.6163712c0.1219463,6.8986435,4.1487846,9.929863,12.690897,8.9891357l2.4405594-0.1045227  c1.3423882-0.1045227,2.4405556,0.8361969,2.3186111,1.9859772l5.394207,17.9389954l31.6388206-11.4438324  c0,0-5.7935638-13.3938065-6.2816772-18.4110031C71.385498,58.2345123,75.6397934,54.4356232,75.6397934,54.4356232z   M70.8566284,48.7990875c-10.0633125,8.7981682-16.8692627-0.4002686-16.8692627-0.4002686  c-1.4866867,0.9721146-3.4881058,0.7433434-5.2035637,0.5146523c-1.9442291-0.2287712-3.8884583-0.9721146-5.0891762-2.5732651  c-0.6291237-0.8577309-0.9722786-1.8298454-1.0866661-2.8591499c-5.0895081,2.0014191-12.4088764,0.571846-14.7534561-4.7462692  c-1.7726498-3.9456482-1.0291424-11.4366798,3.2596645-13.7239838c0.3431568-2.5161572,1.0291424-4.7462673,3.144949-6.4046135  c2.1158066-1.6011543,4.6891556-2.5160751,7.376564-2.3444977c3.6600151-4.2316132,10.8078079-4.7462664,15.7826004-2.6304598  c2.7449265-1.3151894,5.6042404-1.143693,8.4632263,0.1143856c3.2024689,1.3723822,5.3182755,3.0879221,6.4046173,5.8898783  c5.2038879,2.1730003,7.6056595,7.3194523,6.9765396,12.9807224c-0.228775,2.1729202-0.6863174,4.2887268-1.9442291,5.9470711  C77.7184601,43.252285,75.0310516,47.255127,70.8566284,48.7990875z"/><path xmlns="http://www.w3.org/2000/svg" d="M68.955246,35.3709221c-0.6274796-0.6274796-1.6448212-0.6274796-2.2722015,0l-0.0159531,0.0159378  c-1.4630737-1.883194-8.4504204-10.7666569-15.3143845-17.618475c-0.8854065-0.8836975-1.9737244-0.7527409-2.7266808,0  l-2.2722969,2.2722988c-0.7529373,0.7527599-0.7529373,1.9735508,0,2.7266827  c8.5704689,8.5702763,9.267334,8.5486431,17.6530304,15.2797451l-0.050396,0.0508842  c-0.6273804,0.6270905-0.6273804,1.6444283,0,2.2719078c0.6273842,0.6274796,1.6447182,0.6274796,2.2721977,0l2.7266846-2.7266846  C69.5826263,37.0157394,69.5825272,35.9984016,68.955246,35.3709221z"/><circle xmlns="http://www.w3.org/2000/svg" cx="49.7253418" cy="36.9039612" r="3.9362783"/></g>        </g></svg>